<svg viewBox="0 0 407 60" fill="none" xmlns="http://www.w3.org/2000/svg">
<path d="M267.348 26.3214H245.343L242.367 35.2392H264.373L267.348 26.3214Z" fill="url(#paint0_linear)"/>
<path d="M32.5663 1.10791H19.4818L12.1921 22.5117L0 58.481H13.0845L24.4695 24.6907L24.4553 24.6878L32.5663 1.10791Z" fill="url(#paint1_linear)"/>
<path d="M109.885 1.10791L101.712 25.5799L97.5993 37.7903L90.5569 58.481H103.641L109.948 39.9778L115.62 23.1367L122.97 1.10791H109.885Z" fill="url(#paint2_linear)"/>
<path d="M166.23 14.2416L166.091 1.10791H150.588L137.918 19.2162L121.804 42.0802L110.184 58.427H124.16L132.487 45.6427L142.065 45.6711L152.864 45.6967L152.793 47.5689L152.72 58.427H166.398L166.429 49.9865L166.23 14.2416ZM138.876 35.5914L150.992 16.9263L153.893 12.3496L153.862 16.415L153.441 35.5914H138.876Z" fill="url(#paint3_linear)"/>
<path d="M316.742 11.8098L320.22 1.10791H299.929H294.171H286.841L277.895 27.668L273.91 39.6824L267.644 58.481H280.728L287.825 37.2193L288.109 36.1852H293.443H293.884H307.076L307.826 33.6795L308.017 32.8868L310.427 25.4833H291.715L296.322 11.8098H316.742Z" fill="url(#paint4_linear)"/>
<path d="M232.69 5.86366C231.383 4.78961 229.916 3.92687 228.342 3.3068L228.245 3.32384C224.929 1.95166 221.106 1.40336 217.696 1.40336C212.643 1.40336 193.61 1.11926 193.61 1.11926L189.921 12.4234L176.68 51.7223H176.629L174.355 58.4895C174.355 58.4895 196.071 58.2849 199.038 58.4895H200.8C202.959 58.3164 205.086 57.8618 207.126 57.1372H207.07C211.617 55.5946 216.687 52.8133 221.316 49.0149L221.495 48.9837C225.636 45.5745 229.41 41.3642 232.105 36.5005C234.778 31.5413 236.581 26.1601 237.433 20.5912C238.317 14.9291 236.555 9.13359 232.69 5.86366ZM220.185 32.6169C215.726 42.725 205.913 47.7791 200.559 47.7791H191.058L202.312 14.5712L203.25 11.8098H212.171C215.144 11.8098 219.307 12.9973 221.686 16.8638C221.912 17.2355 222.108 17.625 222.271 18.0286C223.806 21.9094 222.615 27.5203 220.199 32.6169H220.185Z" fill="url(#paint5_linear)"/>
<path d="M359.272 11.8098L362.754 1.10791H342.459H336.701H329.374L319.095 31.6567L310.069 58.481H318.691H323.153H344.744L348.222 47.4808H326.859L331.065 34.9977H350.095L353.008 25.7503L353.551 23.9975H334.749L338.852 11.8098H359.272Z" fill="url(#paint6_linear)"/>
<path d="M396.172 0L392.194 0.0284095C377.395 0.448871 370.904 6.18192 366.9 12.1905C364.641 15.632 363.628 19.7419 364.027 23.8384C364.28 26.0402 364.311 26.9635 366.096 29.0544C366.988 30.242 370.853 33.2164 374.423 34.7023C376.207 35.8898 381.559 36.7818 381.857 41.8359C381.857 43.9183 380.667 47.1883 372.936 48.9695C361.338 49.8616 356.282 43.3217 356.282 43.3217L351.82 56.106C353.904 58.1856 362.231 59.6714 367.287 59.3759C375.017 59.0776 382.744 57.2878 386.913 54.0236C393.751 48.6741 396.727 42.728 396.727 36.4864C396.727 30.2448 390.773 26.3754 387.786 24.8896C386.16 24.0771 382.67 22.9009 380.556 20.9549C378.851 19.3384 377.941 17.1906 379.666 14.2701C383.534 8.6223 393.347 9.51436 397.511 11.0002C399.331 11.8665 401.031 12.9657 402.567 14.2701L406.73 2.08242C403.999 0.403416 399.051 0.0568191 396.172 0Z" fill="url(#paint7_linear)"/>
<path d="M84.4608 1.10791L74.6332 30.2845L73.5561 33.4948L71.4502 39.7165L69.2846 32.7363L68.7588 31.0629L59.4172 1.10791H57.695H46.3725H44.9089L36.2522 26.7958L25.5778 58.481H38.3667L48.0664 28.9123L51.7268 17.7531L55.6516 30.2589L64.5129 58.481H77.6201L85.3446 35.5829L87.9138 27.9521L96.9484 1.10791H84.4608Z" fill="url(#paint8_linear)"/>
<defs>
<linearGradient id="paint0_linear" x1="254.858" y1="26.3214" x2="254.858" y2="35.2392" gradientUnits="userSpaceOnUse">
<stop stop-color="#A025D6"/>
<stop offset="0.46875" stop-color="#1873C8"/>
<stop offset="1" stop-color="#00D4FF"/>
</linearGradient>
<linearGradient id="paint1_linear" x1="16.2831" y1="1.10791" x2="16.2831" y2="58.481" gradientUnits="userSpaceOnUse">
<stop stop-color="#A025D6"/>
<stop offset="0.46875" stop-color="#1873C8"/>
<stop offset="1" stop-color="#00D4FF"/>
</linearGradient>
<linearGradient id="paint2_linear" x1="106.763" y1="1.10791" x2="106.763" y2="58.481" gradientUnits="userSpaceOnUse">
<stop stop-color="#A025D6"/>
<stop offset="0.46875" stop-color="#1873C8"/>
<stop offset="1" stop-color="#00D4FF"/>
</linearGradient>
<linearGradient id="paint3_linear" x1="138.306" y1="1.10791" x2="138.306" y2="58.427" gradientUnits="userSpaceOnUse">
<stop stop-color="#A025D6"/>
<stop offset="0.46875" stop-color="#1873C8"/>
<stop offset="1" stop-color="#00D4FF"/>
</linearGradient>
<linearGradient id="paint4_linear" x1="293.932" y1="1.10791" x2="293.932" y2="58.481" gradientUnits="userSpaceOnUse">
<stop stop-color="#A025D6"/>
<stop offset="0.46875" stop-color="#1873C8"/>
<stop offset="1" stop-color="#00D4FF"/>
</linearGradient>
<linearGradient id="paint5_linear" x1="206.006" y1="1.11926" x2="206.006" y2="58.4895" gradientUnits="userSpaceOnUse">
<stop stop-color="#A025D6"/>
<stop offset="0.46875" stop-color="#1873C8"/>
<stop offset="1" stop-color="#00D4FF"/>
</linearGradient>
<linearGradient id="paint6_linear" x1="336.411" y1="1.10791" x2="336.411" y2="58.481" gradientUnits="userSpaceOnUse">
<stop stop-color="#A025D6"/>
<stop offset="0.46875" stop-color="#1873C8"/>
<stop offset="1" stop-color="#00D4FF"/>
</linearGradient>
<linearGradient id="paint7_linear" x1="379.275" y1="0" x2="379.275" y2="59.4134" gradientUnits="userSpaceOnUse">
<stop stop-color="#A025D6"/>
<stop offset="0.46875" stop-color="#1873C8"/>
<stop offset="1" stop-color="#00D4FF"/>
</linearGradient>
<linearGradient id="paint8_linear" x1="61.2631" y1="1.10791" x2="61.2631" y2="58.481" gradientUnits="userSpaceOnUse">
<stop stop-color="#A025D6"/>
<stop offset="0.46875" stop-color="#1873C8"/>
<stop offset="1" stop-color="#00D4FF"/>
</linearGradient>
</defs>
</svg>
