<svg viewBox="0 0 400 52" fill="none" xmlns="http://www.w3.org/2000/svg">
<g clip-path="url(#clip0)">
<path d="M10.36 44V16.58H0V11.45H3C4.96218 11.4303 6.85834 10.7387 8.37235 9.49034C9.88636 8.24201 10.9267 6.51243 11.32 4.58997H17V44H10.36Z" fill="url(#paint0_linear)"/>
<path d="M41.6899 44.77C29.5499 44.77 28.3999 30.08 28.3999 25C28.3999 18.52 29.4999 3.88997 41.6899 3.88997C43.7242 3.85622 45.7293 4.37623 47.4908 5.39436C49.2523 6.41249 50.7037 7.89041 51.6899 9.66997C54.3399 14 54.9999 19.22 54.9999 24.3C54.9999 29.38 54.1899 44.77 41.6899 44.77ZM41.5799 9.71997C38.0799 9.71997 35.5799 12.37 35.5799 24.3C35.5199 36.77 38.2999 38.93 41.6999 38.93C45.5099 38.93 47.7599 35.93 47.7599 24.3C47.7499 11.83 44.9999 9.71997 41.5799 9.71997Z" fill="url(#paint1_linear)"/>
<path d="M62.0002 44H56.9102L76.5702 4.58997H81.7002L62.0002 44Z" fill="url(#paint2_linear)"/>
<path d="M96.7102 44.7699C94.9131 44.8092 93.1266 44.4848 91.458 43.8164C89.7894 43.1479 88.2731 42.1491 87.0002 40.8799C85.0702 38.8299 84.1302 36.8799 83.6602 31.3799H90.6602C90.8702 36.9399 93.5902 38.7699 96.7302 38.7699C100.39 38.7699 103.01 36.1799 103.01 32.0799C103.01 27.5899 100.29 25.8699 96.2102 25.8699H93.2602V21.0599H96.1902C96.9684 21.1144 97.7494 21.0059 98.4833 20.7414C99.2172 20.477 99.8879 20.0624 100.453 19.5241C101.017 18.9858 101.463 18.3357 101.763 17.6152C102.062 16.8948 102.207 16.1199 102.19 15.3399C102.19 13.3899 101.25 9.87994 96.7001 9.87994C91.0501 9.87994 90.8402 14.8799 90.7902 16.6299H84.4202C84.3721 14.137 85.0421 11.6828 86.3502 9.55994C87.5095 7.76926 89.1101 6.30707 90.9981 5.31405C92.886 4.32103 94.9978 3.8306 97.1301 3.88994C103 3.88994 109 7.60994 109 14.1999C109 19.7099 105.65 21.6499 104.45 22.3599C106.45 23.7099 110.1 26.1399 110.1 32.0199C110.1 39.9999 103.88 44.7699 96.7102 44.7699Z" fill="url(#paint3_linear)"/>
<path d="M123.75 44V16.58H113.39V11.45H116.39C118.351 11.428 120.244 10.7354 121.756 9.48722C123.268 8.23908 124.307 6.51077 124.7 4.58997H130.35V44H123.75Z" fill="url(#paint4_linear)"/>
<path d="M150.84 36.5601V43.5601C150.84 44.5601 150.79 50.4701 143.78 51.2301V47.6301C147.34 47.4701 147.55 45.1401 147.65 44.0101H143.78V36.5601H150.84Z" fill="url(#paint5_linear)"/>
<path d="M183.79 44V16.58H173.44V11.45H176.44C178.402 11.4285 180.297 10.7362 181.81 9.48814C183.324 8.24012 184.365 6.51159 184.76 4.58997H190.41V44H183.79Z" fill="url(#paint6_linear)"/>
<path d="M212.87 44V16.58H202.52V11.45H205.52C207.482 11.4285 209.377 10.7362 210.891 9.48814C212.404 8.24012 213.445 6.51159 213.84 4.58997H219.49V44H212.87Z" fill="url(#paint7_linear)"/>
<path d="M235.47 44H230.34L250 4.58997H255.13L235.47 44Z" fill="url(#paint8_linear)"/>
<path d="M268.11 44V16.58H257.75V11.45H260.75C262.712 11.4303 264.608 10.7387 266.122 9.49034C267.636 8.24201 268.677 6.51243 269.07 4.58997H274.72V44H268.11Z" fill="url(#paint9_linear)"/>
<path d="M308.07 18.25V46.25H302.26V1.67004H322.45V18.25H308.07ZM317.17 5.89004H308.07V8.05004H317.17V5.89004ZM317.17 11.72H308.07V14H317.17V11.72ZM331.17 34.18V45.41H325.79V34.18H321.55C320.45 40.07 318.41 42.71 314.17 46.39L309.62 42.77C314.33 39.77 315.43 37.77 316.37 34.18H310.2V29.38H316.89C317 27.76 317 27.11 317 25.43H311.71V20.79H336.3V25.43H331.17V29.38H337.66V34.18H331.17ZM325.79 25.43H322.12C322.07 27.7 322.07 28.35 322.02 29.38H325.79V25.43ZM340.59 46.55H337.4L334.89 40.88H338.34C339.65 40.88 340.34 40.34 340.34 38.99V18.25H325.64V1.67004H345.83V40.45C345.78 43.9 344.63 46.55 340.55 46.55H340.59ZM340.33 5.89004H331.33V8.05004H340.33V5.89004ZM340.33 11.72H331.33V14H340.33V11.72Z" fill="url(#paint10_linear)"/>
<path d="M374.81 45.63V46.82H369.16V27.38C368.32 28.38 368.22 28.46 367.69 29.05L364.87 26.3V47H359.17V20C358.379 21.1444 357.503 22.2274 356.55 23.24L351.42 19.08C356.563 13.8409 360.182 7.30031 361.89 0.16L366.59 1.78C367.371 1.99686 368.113 2.33426 368.79 2.78V1.67L373.34 2C375.07 2.11 375.49 2.21 375.49 2.7C375.49 3.02 375.17 3.24 374.96 3.35C374.49 3.73 374.33 3.83 374.33 4.1V9H379.88V0L384.43 0.32C385.21 0.38 386.58 0.43 386.58 1.03C386.58 1.24 386.37 1.4 386.21 1.51C385.53 2 385.37 2.11 385.37 2.43V9H391.23V1.67L396 2C396.73 2 398 2.11 398 2.7C398 2.97 397.84 3.13 397.37 3.4C396.9 3.67 396.79 3.83 396.79 4.1V13.72H384.79L387.57 15C388.46 15.38 388.72 15.76 388.72 16.08C388.72 16.4 388.41 16.57 388.04 16.62C387.52 16.68 387.36 16.73 387.15 16.95C386.698 17.5941 386.281 18.2617 385.9 18.95H399.08V23.65H386.78V26.46H395.94V30.78H386.78V33.59H395.94V37.91H386.78V40.91H399.08V45.61L374.81 45.63ZM368.81 13.72V3.78C368.71 3.89 368.65 3.89 368.24 4.1C368.067 4.13931 367.905 4.21855 367.768 4.33141C367.631 4.44426 367.522 4.5876 367.45 4.75C366.71 6.69109 365.817 8.57033 364.78 10.37C365.46 10.69 366.2 11.07 366.2 11.72C366.183 11.9005 366.121 12.0739 366.02 12.2242C365.919 12.3745 365.781 12.4968 365.62 12.58C364.99 13.01 364.89 13.23 364.89 13.45V23.65C367.888 20.8383 370.304 17.4642 372 13.72H368.81ZM381.21 23.65H374.83V26.46H381.21V23.65ZM381.21 30.78H374.83V33.59H381.21V30.78ZM381.21 37.91H374.83V40.91H381.21V37.91ZM375.87 13.72L377.79 15C377.94 15.11 378.62 15.48 378.62 16C378.622 16.0971 378.599 16.193 378.554 16.2788C378.508 16.3645 378.441 16.4372 378.36 16.49C377.884 16.6813 377.396 16.8417 376.9 16.97C376.307 17.5775 375.796 18.26 375.38 19H379.78C381.007 17.3319 382.123 15.5848 383.12 13.77L375.87 13.72Z" fill="url(#paint11_linear)"/>
<path d="M10.36 44V16.58H0V11.45H3C4.96218 11.4303 6.85834 10.7387 8.37235 9.49034C9.88636 8.24201 10.9267 6.51243 11.32 4.58997H17V44H10.36Z" fill="url(#paint12_linear)"/>
<path d="M41.6899 44.77C29.5499 44.77 28.3999 30.08 28.3999 25C28.3999 18.52 29.4999 3.88997 41.6899 3.88997C43.7242 3.85622 45.7293 4.37623 47.4908 5.39436C49.2523 6.41249 50.7037 7.89041 51.6899 9.66997C54.3399 14 54.9999 19.22 54.9999 24.3C54.9999 29.38 54.1899 44.77 41.6899 44.77ZM41.5799 9.71997C38.0799 9.71997 35.5799 12.37 35.5799 24.3C35.5199 36.77 38.2999 38.93 41.6999 38.93C45.5099 38.93 47.7599 35.93 47.7599 24.3C47.7499 11.83 44.9999 9.71997 41.5799 9.71997Z" fill="url(#paint13_linear)"/>
<path d="M62.0002 44H56.9102L76.5702 4.58997H81.7002L62.0002 44Z" fill="url(#paint14_linear)"/>
<path d="M96.7102 44.7699C94.9131 44.8092 93.1266 44.4848 91.458 43.8164C89.7894 43.1479 88.2731 42.1491 87.0002 40.8799C85.0702 38.8299 84.1302 36.8799 83.6602 31.3799H90.6602C90.8702 36.9399 93.5902 38.7699 96.7302 38.7699C100.39 38.7699 103.01 36.1799 103.01 32.0799C103.01 27.5899 100.29 25.8699 96.2102 25.8699H93.2602V21.0599H96.1902C96.9684 21.1144 97.7494 21.0059 98.4833 20.7414C99.2172 20.477 99.8879 20.0624 100.453 19.5241C101.017 18.9858 101.463 18.3357 101.763 17.6152C102.062 16.8948 102.207 16.1199 102.19 15.3399C102.19 13.3899 101.25 9.87994 96.7001 9.87994C91.0501 9.87994 90.8402 14.8799 90.7902 16.6299H84.4202C84.3721 14.137 85.0421 11.6828 86.3502 9.55994C87.5095 7.76926 89.1101 6.30707 90.9981 5.31405C92.886 4.32103 94.9978 3.8306 97.1301 3.88994C103 3.88994 109 7.60994 109 14.1999C109 19.7099 105.65 21.6499 104.45 22.3599C106.45 23.7099 110.1 26.1399 110.1 32.0199C110.1 39.9999 103.88 44.7699 96.7102 44.7699Z" fill="url(#paint15_linear)"/>
<path d="M123.75 44V16.58H113.39V11.45H116.39C118.351 11.428 120.244 10.7354 121.756 9.48722C123.268 8.23908 124.307 6.51077 124.7 4.58997H130.35V44H123.75Z" fill="url(#paint16_linear)"/>
<path d="M150.84 36.5601V43.5601C150.84 44.5601 150.79 50.4701 143.78 51.2301V47.6301C147.34 47.4701 147.55 45.1401 147.65 44.0101H143.78V36.5601H150.84Z" fill="url(#paint17_linear)"/>
<path d="M183.79 44V16.58H173.44V11.45H176.44C178.402 11.4285 180.297 10.7362 181.81 9.48814C183.324 8.24012 184.365 6.51159 184.76 4.58997H190.41V44H183.79Z" fill="url(#paint18_linear)"/>
<path d="M212.87 44V16.58H202.52V11.45H205.52C207.482 11.4285 209.377 10.7362 210.891 9.48814C212.404 8.24012 213.445 6.51159 213.84 4.58997H219.49V44H212.87Z" fill="url(#paint19_linear)"/>
<path d="M235.47 44H230.34L250 4.58997H255.13L235.47 44Z" fill="url(#paint20_linear)"/>
<path d="M268.11 44V16.58H257.75V11.45H260.75C262.712 11.4303 264.608 10.7387 266.122 9.49034C267.636 8.24201 268.677 6.51243 269.07 4.58997H274.72V44H268.11Z" fill="url(#paint21_linear)"/>
<path d="M308.07 18.25V46.25H302.26V1.67004H322.45V18.25H308.07ZM317.17 5.89004H308.07V8.05004H317.17V5.89004ZM317.17 11.72H308.07V14H317.17V11.72ZM331.17 34.18V45.41H325.79V34.18H321.55C320.45 40.07 318.41 42.71 314.17 46.39L309.62 42.77C314.33 39.77 315.43 37.77 316.37 34.18H310.2V29.38H316.89C317 27.76 317 27.11 317 25.43H311.71V20.79H336.3V25.43H331.17V29.38H337.66V34.18H331.17ZM325.79 25.43H322.12C322.07 27.7 322.07 28.35 322.02 29.38H325.79V25.43ZM340.59 46.55H337.4L334.89 40.88H338.34C339.65 40.88 340.34 40.34 340.34 38.99V18.25H325.64V1.67004H345.83V40.45C345.78 43.9 344.63 46.55 340.55 46.55H340.59ZM340.33 5.89004H331.33V8.05004H340.33V5.89004ZM340.33 11.72H331.33V14H340.33V11.72Z" fill="url(#paint22_linear)"/>
<path d="M374.81 45.63V46.82H369.16V27.38C368.32 28.38 368.22 28.46 367.69 29.05L364.87 26.3V47H359.17V20C358.379 21.1444 357.503 22.2274 356.55 23.24L351.42 19.08C356.563 13.8409 360.182 7.30031 361.89 0.16L366.59 1.78C367.371 1.99686 368.113 2.33426 368.79 2.78V1.67L373.34 2C375.07 2.11 375.49 2.21 375.49 2.7C375.49 3.02 375.17 3.24 374.96 3.35C374.49 3.73 374.33 3.83 374.33 4.1V9H379.88V0L384.43 0.32C385.21 0.38 386.58 0.43 386.58 1.03C386.58 1.24 386.37 1.4 386.21 1.51C385.53 2 385.37 2.11 385.37 2.43V9H391.23V1.67L396 2C396.73 2 398 2.11 398 2.7C398 2.97 397.84 3.13 397.37 3.4C396.9 3.67 396.79 3.83 396.79 4.1V13.72H384.79L387.57 15C388.46 15.38 388.72 15.76 388.72 16.08C388.72 16.4 388.41 16.57 388.04 16.62C387.52 16.68 387.36 16.73 387.15 16.95C386.698 17.5941 386.281 18.2617 385.9 18.95H399.08V23.65H386.78V26.46H395.94V30.78H386.78V33.59H395.94V37.91H386.78V40.91H399.08V45.61L374.81 45.63ZM368.81 13.72V3.78C368.71 3.89 368.65 3.89 368.24 4.1C368.067 4.13931 367.905 4.21855 367.768 4.33141C367.631 4.44426 367.522 4.5876 367.45 4.75C366.71 6.69109 365.817 8.57033 364.78 10.37C365.46 10.69 366.2 11.07 366.2 11.72C366.183 11.9005 366.121 12.0739 366.02 12.2242C365.919 12.3745 365.781 12.4968 365.62 12.58C364.99 13.01 364.89 13.23 364.89 13.45V23.65C367.888 20.8383 370.304 17.4642 372 13.72H368.81ZM381.21 23.65H374.83V26.46H381.21V23.65ZM381.21 30.78H374.83V33.59H381.21V30.78ZM381.21 37.91H374.83V40.91H381.21V37.91ZM375.87 13.72L377.79 15C377.94 15.11 378.62 15.48 378.62 16C378.622 16.0971 378.599 16.193 378.554 16.2788C378.508 16.3645 378.441 16.4372 378.36 16.49C377.884 16.6813 377.396 16.8417 376.9 16.97C376.307 17.5775 375.796 18.26 375.38 19H379.78C381.007 17.3319 382.123 15.5848 383.12 13.77L375.87 13.72Z" fill="url(#paint23_linear)"/>
</g>
<defs>
<linearGradient id="paint0_linear" x1="8.5" y1="4.58997" x2="8.5" y2="44" gradientUnits="userSpaceOnUse">
<stop stop-color="#A025D6"/>
<stop offset="1" stop-color="#00D4FF"/>
</linearGradient>
<linearGradient id="paint1_linear" x1="41.6999" y1="3.88843" x2="41.6999" y2="44.77" gradientUnits="userSpaceOnUse">
<stop stop-color="#A025D6"/>
<stop offset="1" stop-color="#00D4FF"/>
</linearGradient>
<linearGradient id="paint2_linear" x1="69.3052" y1="4.58997" x2="69.3052" y2="44" gradientUnits="userSpaceOnUse">
<stop stop-color="#A025D6"/>
<stop offset="1" stop-color="#00D4FF"/>
</linearGradient>
<linearGradient id="paint3_linear" x1="96.8802" y1="3.88513" x2="96.8802" y2="44.7731" gradientUnits="userSpaceOnUse">
<stop stop-color="#A025D6"/>
<stop offset="1" stop-color="#00D4FF"/>
</linearGradient>
<linearGradient id="paint4_linear" x1="121.87" y1="4.58997" x2="121.87" y2="44" gradientUnits="userSpaceOnUse">
<stop stop-color="#A025D6"/>
<stop offset="1" stop-color="#00D4FF"/>
</linearGradient>
<linearGradient id="paint5_linear" x1="147.31" y1="36.5601" x2="147.31" y2="51.2301" gradientUnits="userSpaceOnUse">
<stop stop-color="#A025D6"/>
<stop offset="1" stop-color="#00D4FF"/>
</linearGradient>
<linearGradient id="paint6_linear" x1="181.925" y1="4.58997" x2="181.925" y2="44" gradientUnits="userSpaceOnUse">
<stop stop-color="#A025D6"/>
<stop offset="1" stop-color="#00D4FF"/>
</linearGradient>
<linearGradient id="paint7_linear" x1="211.005" y1="4.58997" x2="211.005" y2="44" gradientUnits="userSpaceOnUse">
<stop stop-color="#A025D6"/>
<stop offset="1" stop-color="#00D4FF"/>
</linearGradient>
<linearGradient id="paint8_linear" x1="242.735" y1="4.58997" x2="242.735" y2="44" gradientUnits="userSpaceOnUse">
<stop stop-color="#A025D6"/>
<stop offset="1" stop-color="#00D4FF"/>
</linearGradient>
<linearGradient id="paint9_linear" x1="266.235" y1="4.58997" x2="266.235" y2="44" gradientUnits="userSpaceOnUse">
<stop stop-color="#A025D6"/>
<stop offset="1" stop-color="#00D4FF"/>
</linearGradient>
<linearGradient id="paint10_linear" x1="324.045" y1="1.67004" x2="324.045" y2="46.55" gradientUnits="userSpaceOnUse">
<stop stop-color="#A025D6"/>
<stop offset="1" stop-color="#00D4FF"/>
</linearGradient>
<linearGradient id="paint11_linear" x1="375.25" y1="0" x2="375.25" y2="47" gradientUnits="userSpaceOnUse">
<stop stop-color="#A025D6"/>
<stop offset="1" stop-color="#00D4FF"/>
</linearGradient>
<linearGradient id="paint12_linear" x1="8.5" y1="4.58997" x2="8.5" y2="44" gradientUnits="userSpaceOnUse">
<stop stop-color="#A025D6"/>
<stop offset="1" stop-color="#00D4FF"/>
</linearGradient>
<linearGradient id="paint13_linear" x1="41.6999" y1="3.88843" x2="41.6999" y2="44.77" gradientUnits="userSpaceOnUse">
<stop stop-color="#A025D6"/>
<stop offset="1" stop-color="#00D4FF"/>
</linearGradient>
<linearGradient id="paint14_linear" x1="69.3052" y1="4.58997" x2="69.3052" y2="44" gradientUnits="userSpaceOnUse">
<stop stop-color="#A025D6"/>
<stop offset="1" stop-color="#00D4FF"/>
</linearGradient>
<linearGradient id="paint15_linear" x1="96.8802" y1="3.88513" x2="96.8802" y2="44.7731" gradientUnits="userSpaceOnUse">
<stop stop-color="#A025D6"/>
<stop offset="1" stop-color="#00D4FF"/>
</linearGradient>
<linearGradient id="paint16_linear" x1="121.87" y1="4.58997" x2="121.87" y2="44" gradientUnits="userSpaceOnUse">
<stop stop-color="#A025D6"/>
<stop offset="1" stop-color="#00D4FF"/>
</linearGradient>
<linearGradient id="paint17_linear" x1="147.31" y1="36.5601" x2="147.31" y2="51.2301" gradientUnits="userSpaceOnUse">
<stop stop-color="#A025D6"/>
<stop offset="1" stop-color="#00D4FF"/>
</linearGradient>
<linearGradient id="paint18_linear" x1="181.925" y1="4.58997" x2="181.925" y2="44" gradientUnits="userSpaceOnUse">
<stop stop-color="#A025D6"/>
<stop offset="1" stop-color="#00D4FF"/>
</linearGradient>
<linearGradient id="paint19_linear" x1="211.005" y1="4.58997" x2="211.005" y2="44" gradientUnits="userSpaceOnUse">
<stop stop-color="#A025D6"/>
<stop offset="1" stop-color="#00D4FF"/>
</linearGradient>
<linearGradient id="paint20_linear" x1="242.735" y1="4.58997" x2="242.735" y2="44" gradientUnits="userSpaceOnUse">
<stop stop-color="#A025D6"/>
<stop offset="1" stop-color="#00D4FF"/>
</linearGradient>
<linearGradient id="paint21_linear" x1="266.235" y1="4.58997" x2="266.235" y2="44" gradientUnits="userSpaceOnUse">
<stop stop-color="#A025D6"/>
<stop offset="1" stop-color="#00D4FF"/>
</linearGradient>
<linearGradient id="paint22_linear" x1="324.045" y1="1.67004" x2="324.045" y2="46.55" gradientUnits="userSpaceOnUse">
<stop stop-color="#A025D6"/>
<stop offset="1" stop-color="#00D4FF"/>
</linearGradient>
<linearGradient id="paint23_linear" x1="375.25" y1="0" x2="375.25" y2="47" gradientUnits="userSpaceOnUse">
<stop stop-color="#A025D6"/>
<stop offset="1" stop-color="#00D4FF"/>
</linearGradient>
<clipPath id="clip0">
<rect width="399.08" height="51.25" fill="white"/>
</clipPath>
</defs>
</svg>
