<svg viewBox="0 0 335 34" fill="none" xmlns="http://www.w3.org/2000/svg">
<g clip-path="url(#clip0)">
<path d="M20.1 12.16L20.36 26.6C20.44 31.38 17.97 31.8 12.8 31.84L10.94 27.17C11.8959 27.3258 12.8617 27.4127 13.83 27.43C15.39 27.43 15.83 27.05 15.83 26.29L15.65 16C12.58 20.52 7.9 24.24 3.31 27.2L0 23.9C5.38525 21.2947 9.92848 17.2263 13.11 12.16H1.25V8.09003H15.54L15.39 0.910034L19.79 1.14003C20.02 1.14003 20.67 1.14003 20.67 1.63003C20.67 1.75003 20.67 1.86003 20.36 2.05003C20.05 2.24003 19.87 2.43003 19.87 2.62003L20 8.09003H27.7V12.16H20.1Z" fill="url(#paint0_linear)"/>
<path d="M46.74 10.8301C44.3862 8.88316 41.7832 7.25885 39 6.00005L41.32 2.43005C44.1793 3.64709 46.8685 5.23033 49.32 7.14005L46.74 10.8301ZM57.87 21.1601C53.5922 24.7504 48.7547 27.6151 43.55 29.6401C43.36 30.1701 43.28 30.8101 42.98 30.8101C42.68 30.8101 42.41 30.5901 42.14 30.0901L39.48 25.5301C44.6042 24.4204 49.4194 22.1904 53.58 19.0001C57.8636 15.7006 61.617 11.765 64.71 7.33005L67.33 11.1301C64.6278 14.8718 61.4475 18.2438 57.87 21.1601V21.1601Z" fill="url(#paint1_linear)"/>
<path d="M102.1 15.2C100.66 18.62 99.25 22.07 95.83 25.76C92.8815 28.8582 89.2718 31.251 85.27 32.76L81.74 29.49C85.8079 28.2075 89.4739 25.8921 92.38 22.77C94.5551 20.4631 96.2002 17.7089 97.2 14.7H77.48V10.52H99C99.6701 10.426 100.31 10.1797 100.87 9.8L104 13.07C103.213 13.6266 102.563 14.355 102.1 15.2V15.2ZM81.28 6.31V2H99.28V6.3L81.28 6.31Z" fill="url(#paint2_linear)"/>
<path d="M139.3 4.75001C138.73 4.75001 138.66 4.86001 138.13 5.43001C136.219 7.58796 134.121 9.57239 131.86 11.36V31.61H127.11V14.89C124.067 16.9446 120.863 18.7505 117.53 20.29L114.23 16.91C122.725 13.32 130.26 7.78875 136.23 0.76001L139.54 3.50001C139.69 3.61001 140.19 4.10001 140.19 4.41001C140.19 4.72001 140.06 4.71001 139.3 4.75001Z" fill="url(#paint3_linear)"/>
<path d="M160.74 10.8301C158.386 8.88316 155.783 7.25885 153 6.00005L155.32 2.43005C158.179 3.64709 160.868 5.23033 163.32 7.14005L160.74 10.8301ZM171.87 21.1601C167.592 24.7504 162.755 27.6151 157.55 29.6401C157.36 30.1701 157.28 30.8101 156.98 30.8101C156.68 30.8101 156.41 30.5901 156.14 30.0901L153.48 25.5301C158.604 24.4204 163.419 22.1904 167.58 19.0001C171.864 15.7006 175.617 11.765 178.71 7.33005L181.33 11.1301C178.628 14.8718 175.447 18.2438 171.87 21.1601V21.1601Z" fill="url(#paint4_linear)"/>
<path d="M192.66 12.8401V32.5601H188.44V1.18005H203.11V12.8401H192.66ZM199.27 4.14005H192.66V5.66005H199.27V4.14005ZM199.27 8.24005H192.66V9.88005H199.27V8.24005ZM209.42 24.0501V32.0001H205.5V24.1001H202.42C201.63 28.2401 200.14 30.1001 197.07 32.6901L193.76 30.1401C197.18 28.0101 197.98 26.6501 198.66 24.1401H194.18V20.6701H199C199.08 19.5301 199.08 19.0701 199.08 17.9001H195.24V14.6301H213.1V17.9001H209.38V20.6701H214.09V24.0501H209.42ZM205.5 17.9001H202.84C202.84 19.4901 202.84 19.9501 202.77 20.6701H205.5V17.9001ZM216.25 32.7501H213.94L212.11 28.7501H214.62C215.57 28.7501 216.06 28.3701 216.06 27.4201V12.8401H205.39V1.18005H220.05V28.4601C220.05 30.8901 219.22 32.7501 216.25 32.7501ZM216.06 4.14005H209.53V5.66005H216.06V4.14005ZM216.06 8.24005H209.53V9.88005H216.06V8.24005Z" fill="url(#paint5_linear)"/>
<path d="M241.15 32.1V32.94H237V19.26C236.39 19.95 236.32 20.02 235.94 20.44L233.94 18.5V33.06H229.8V14.06C229.223 14.8656 228.588 15.6276 227.9 16.34L224.17 13.41C227.885 9.7654 230.516 5.16122 231.77 0.11L235.19 1.25C235.755 1.39898 236.294 1.63155 236.79 1.94V1.18L240.09 1.41C241.35 1.48 241.65 1.56 241.65 1.9C241.65 2.24 241.42 2.28 241.27 2.36C240.93 2.62 240.81 2.7 240.81 2.89V6.35H244.81V0L248.12 0.23C248.69 0.23 249.67 0.3 249.67 0.72C249.67 0.87 249.52 0.99 249.41 1.06C248.92 1.41 248.8 1.48 248.8 1.71V6.35H253.06V1.18L256.51 1.41C257.05 1.41 257.96 1.48 257.96 1.9C257.96 2.09 257.84 2.2 257.5 2.39C257.16 2.58 257.08 2.7 257.08 2.89V9.65H248.34L250.4 10.56C251.04 10.83 251.23 11.09 251.23 11.32C251.23 11.55 251 11.66 250.74 11.7C250.48 11.74 250.24 11.78 250.09 11.93C249.79 12.27 249.45 12.93 249.18 13.34H258.76V16.64H249.83V18.64H256.48V21.64H249.83V23.64H256.48V26.64H249.83V28.8H258.76V32.1H241.15ZM236.78 9.65V2.65C236.7 2.73 236.66 2.73 236.36 2.88C236.236 2.90472 236.12 2.95838 236.021 3.03659C235.922 3.1148 235.843 3.21535 235.79 3.33C235.257 4.71547 234.608 6.05354 233.85 7.33C234.35 7.56 234.85 7.83 234.85 8.33C234.838 8.45906 234.793 8.58285 234.719 8.68962C234.646 8.79639 234.546 8.88258 234.43 8.94C233.97 9.25 233.9 9.4 233.9 9.55V16.73C236.067 14.762 237.821 12.3825 239.06 9.73L236.78 9.65ZM245.78 16.65H241.15V18.65H245.78V16.65ZM245.78 21.65H241.15V23.65H245.78V21.65ZM245.78 26.65H241.15V28.8H245.78V26.65ZM241.91 9.65L243.31 10.52C243.43 10.6 243.92 10.87 243.92 11.21C243.919 11.278 243.901 11.3447 243.868 11.404C243.835 11.4634 243.787 11.5135 243.73 11.55C243.385 11.6872 243.031 11.8007 242.67 11.89C242.24 12.3245 241.867 12.8118 241.56 13.34H244.76C245.647 12.1623 246.458 10.9298 247.19 9.65H241.91Z" fill="url(#paint6_linear)"/>
<path d="M267.22 16.49C265.642 15.2526 263.947 14.1709 262.16 13.26L264.48 10C266.254 10.9002 267.93 11.9827 269.48 13.23L267.22 16.49ZM269.69 27.93C269.42 28.61 267.98 31.93 267.94 32.07C267.918 32.403 267.918 32.7371 267.94 33.07C267.94 33.33 267.86 33.37 267.75 33.37C267.415 33.2969 267.094 33.1685 266.8 32.99L263.57 31C265.659 27.4831 267.232 23.6843 268.24 19.72L271.7 22C271.09 24 270.52 25.65 269.69 27.93V27.93ZM270.26 6.61004C268.765 5.19683 267.082 3.99561 265.26 3.04004L267.5 0.0400391C269.302 1.01235 270.981 2.1975 272.5 3.57004L270.26 6.61004ZM294.72 33.06C292.442 31.9349 290.353 30.4604 288.53 28.69C286.742 26.9638 285.243 24.9617 284.09 22.76C283.12 25.1241 281.679 27.266 279.855 29.0556C278.031 30.8452 275.862 32.2451 273.48 33.17L270.56 29.6C275.42 28.04 279.56 24.73 281.05 19.34H273.37V15.5H281.5C281.58 13.91 281.58 13.5 281.58 9.99004H274.93V6.19004H281.54C281.54 3.99004 281.46 2.51004 281.27 0.190039L285.68 0.340039C286.1 0.340039 286.78 0.420039 286.78 0.870039C286.78 1.03004 286.63 1.14004 286.52 1.22004C286.02 1.60004 285.95 1.63004 285.95 1.98004C285.95 2.55004 285.95 5.51004 285.95 6.19004H295.07L294.58 15.5H297.28V19.34H286.78C288.78 23.94 292.78 27.28 297.46 29.34L294.72 33.06ZM285.91 10C285.91 11.56 285.91 11.94 285.79 15.51H290.35L290.58 10H285.91Z" fill="url(#paint7_linear)"/>
<path d="M333.37 32.45H320.19C317.966 32.4448 315.776 31.9101 313.8 30.89C311.898 29.7792 310.357 28.144 309.36 26.18C308.375 28.5306 307.025 30.7109 305.36 32.64L301.44 30.78C303.241 29.0265 304.631 26.8953 305.51 24.54C306.66 21.8835 307.402 19.0683 307.71 16.19L312.08 16.87C312.23 16.87 312.58 17.02 312.58 17.25C312.58 17.48 312.2 17.63 311.82 17.97C311.66 18.5 311.4 19.91 311.13 20.97C312.27 25.3 314.44 26.79 316.3 27.81V14.1H306.73V10.45H330V14.1H320.73V18.1H330.3V21.89H320.73V28.7C326.5 28.7 330.84 28.39 334.67 28.05L333.37 32.45ZM330.25 11.32V7.47997H306.43V11.48H302.67V3.71997H315.93V0.339966L320.93 0.759966C321.08 0.759966 321.5 0.869966 321.5 1.24997C321.5 1.62997 321 1.70997 320.62 2.00997V3.71997H334V11.32H330.25Z" fill="url(#paint8_linear)"/>
</g>
<defs>
<linearGradient id="paint0_linear" x1="13.85" y1="0.910034" x2="13.85" y2="31.84" gradientUnits="userSpaceOnUse">
<stop stop-color="#A025D6"/>
<stop offset="1" stop-color="#00D4FF"/>
</linearGradient>
<linearGradient id="paint1_linear" x1="53.165" y1="2.43005" x2="53.165" y2="30.8101" gradientUnits="userSpaceOnUse">
<stop stop-color="#A025D6"/>
<stop offset="1" stop-color="#00D4FF"/>
</linearGradient>
<linearGradient id="paint2_linear" x1="90.74" y1="2" x2="90.74" y2="32.76" gradientUnits="userSpaceOnUse">
<stop stop-color="#A025D6"/>
<stop offset="1" stop-color="#00D4FF"/>
</linearGradient>
<linearGradient id="paint3_linear" x1="127.21" y1="0.76001" x2="127.21" y2="31.61" gradientUnits="userSpaceOnUse">
<stop stop-color="#A025D6"/>
<stop offset="1" stop-color="#00D4FF"/>
</linearGradient>
<linearGradient id="paint4_linear" x1="167.165" y1="2.43005" x2="167.165" y2="30.8101" gradientUnits="userSpaceOnUse">
<stop stop-color="#A025D6"/>
<stop offset="1" stop-color="#00D4FF"/>
</linearGradient>
<linearGradient id="paint5_linear" x1="204.245" y1="1.18005" x2="204.245" y2="32.7501" gradientUnits="userSpaceOnUse">
<stop stop-color="#A025D6"/>
<stop offset="1" stop-color="#00D4FF"/>
</linearGradient>
<linearGradient id="paint6_linear" x1="241.465" y1="0" x2="241.465" y2="33.06" gradientUnits="userSpaceOnUse">
<stop stop-color="#A025D6"/>
<stop offset="1" stop-color="#00D4FF"/>
</linearGradient>
<linearGradient id="paint7_linear" x1="279.81" y1="0.0400391" x2="279.81" y2="33.37" gradientUnits="userSpaceOnUse">
<stop stop-color="#A025D6"/>
<stop offset="1" stop-color="#00D4FF"/>
</linearGradient>
<linearGradient id="paint8_linear" x1="318.055" y1="0.339966" x2="318.055" y2="32.64" gradientUnits="userSpaceOnUse">
<stop stop-color="#A025D6"/>
<stop offset="1" stop-color="#00D4FF"/>
</linearGradient>
<clipPath id="clip0">
<rect width="334.62" height="33.32" fill="white"/>
</clipPath>
</defs>
</svg>
