<svg width="557" height="34" viewBox="0 0 557 34" fill="none" xmlns="http://www.w3.org/2000/svg">
<path d="M17.44 28.65L6.5 11L4.41 6.42L4.94 12.61V28.61H0V0.910004H5.47L16.41 18.58L18.5 23.14L18 17V0.910004H22.94V28.65H17.44Z" fill="url(#paint0_linear)"/>
<path d="M37.7299 29.14C29.8299 29.14 27.1299 23.59 27.1299 18.58C27.1299 11.78 32.0299 7.71001 37.8499 7.71001C44.6499 7.71001 48.5199 12.58 48.5199 18.5C48.5199 23.75 45.3299 29.14 37.7299 29.14ZM37.8499 11.7C35.0299 11.7 32.2599 13.91 32.2599 18.39C32.2599 22.26 34.3899 25.15 37.9999 25.15C42.7099 25.15 43.4299 20.97 43.4299 18.43C43.4299 13.75 40.6599 11.7 37.8499 11.7V11.7Z" fill="url(#paint1_linear)"/>
<path d="M58.0001 12.23V23.52C58.0001 24.43 58.3801 24.85 59.2501 24.85H61.4201V28.65H58.2901C54.2901 28.65 52.9301 27.05 52.9301 23.82V12.23H50.1201V8.23H52.9301V2.47H57.9301V8.21H61.4601V12.21L58.0001 12.23Z" fill="url(#paint2_linear)"/>
<path d="M87.6299 29.56C82.8799 29.56 76.1099 28.27 75.6899 20.33H80.8199C81.0499 24.77 85.1199 25.27 87.1699 25.27C88.4599 25.27 93.9699 25.11 93.9699 21.2C93.9699 19.2 92.7499 18.43 90.2499 17.86L83.5599 16.38C79.9899 15.58 76.1099 13.56 76.1099 8.28C76.1099 2.28 81.8499 0 87.2799 0C89.5999 0 93.0999 0.42 95.6399 2.74C97.2399 4.18 97.8499 5.51 98.3799 8.74H93.2499C93.0599 4.56 88.6099 4.33 87.2499 4.33C86.3399 4.33 81.1699 4.41 81.1699 8.02C81.1699 9.61 82.1699 10.87 85.0799 11.51L92.2999 13.11C94.4299 13.56 99.2499 15.2 99.2499 20.63C99.2099 25.72 94.9999 29.56 87.6299 29.56Z" fill="url(#paint3_linear)"/>
<path d="M108.6 12.23V23.52C108.6 24.43 108.98 24.85 109.86 24.85H112V28.65H108.92C104.92 28.65 103.57 27.05 103.57 23.82V12.23H100.75V8.23H103.57V2.47H108.57V8.21H112.1V12.21L108.6 12.23Z" fill="url(#paint4_linear)"/>
<path d="M127.79 28.65C127.3 27.7304 127.088 26.688 127.18 25.65C126.61 26.76 125.36 29.11 120.57 29.11C114.95 29.11 113.43 25.69 113.43 23.11C113.43 18.4 117.65 16.99 122.21 16.35C124.41 16.04 126.88 15.62 126.88 13.72C126.88 12.09 125.13 11.6 123.57 11.6C122.157 11.5166 120.763 11.9622 119.66 12.85C119.14 13.3851 118.853 14.1039 118.86 14.85H114.34C114.72 8.51 120.34 7.67 123.12 7.67C127.83 7.67 131.93 9.72 131.93 15.01V26.29C131.897 26.7487 131.985 27.208 132.185 27.6221C132.385 28.0362 132.69 28.3906 133.07 28.65H127.79ZM123.27 19.53C121.37 19.83 118.56 20.53 118.56 22.99C118.56 24.43 119.96 25.57 121.79 25.57C123.79 25.57 126.88 24.28 126.88 21.43V19.11L127.14 17.78C126.27 18.81 125.43 19.15 123.27 19.53V19.53Z" fill="url(#paint5_linear)"/>
<path d="M146.41 28.31C144.74 32.52 142.41 33.74 138.93 33.74C138.158 33.7666 137.387 33.6617 136.65 33.43V29.56C137.186 29.6771 137.732 29.7407 138.28 29.75C138.907 29.7862 139.532 29.6403 140.078 29.3299C140.625 29.0194 141.07 28.5576 141.36 28L134 8.21001H139.24L143.46 20.48L144.18 23.14L144.83 20.36L149 8.21001H154.32L146.41 28.31Z" fill="url(#paint6_linear)"/>
<path d="M188.1 28.65V16H175.44V28.65H170.31V0.910004H175.44V11.7H188.1V0.910004H193.22V28.65H188.1Z" fill="url(#paint7_linear)"/>
<path d="M208.05 29.14C200.14 29.14 197.45 23.59 197.45 18.58C197.45 11.78 202.35 7.71001 208.16 7.71001C214.96 7.71001 218.84 12.58 218.84 18.5C218.84 23.75 215.64 29.14 208.05 29.14ZM208.16 11.7C205.35 11.7 202.57 13.91 202.57 18.39C202.57 22.26 204.7 25.15 208.31 25.15C213.02 25.15 213.74 20.97 213.74 18.43C213.74 13.75 211 11.7 208.16 11.7V11.7Z" fill="url(#paint8_linear)"/>
<path d="M246.16 28.65V16.22C246.16 13.83 245.47 11.93 243 11.93C240.15 11.93 239.13 14.63 239.13 16.22V28.65H234.13V16.22C234.13 14.63 233.68 12.01 230.87 12.01C228.24 12.01 227.18 14.55 227.18 15.92V28.65H222.18V8.21H227.18V9.31L227 11.13C227.52 10.0625 228.339 9.17014 229.359 8.56253C230.379 7.95492 231.554 7.65859 232.74 7.71C236.19 7.71 237.48 9.61 238.47 11.09C239.209 10.0455 240.188 9.19345 241.324 8.60533C242.46 8.01721 243.721 7.71018 245 7.71C249.63 7.71 251.19 11.17 251.19 15.62V28.62L246.16 28.65Z" fill="url(#paint9_linear)"/>
<path d="M259.19 19.91C259.38 20.91 260.14 25.08 264.19 25.08C264.994 25.1247 265.79 24.9083 266.46 24.4632C267.131 24.018 267.639 23.3679 267.91 22.61H273C272.35 24.32 270.6 29.14 264 29.14C258.45 29.14 254.27 25.46 254.27 18.46C254.27 11.17 258.79 7.71 263.84 7.71C265.321 7.66443 266.79 7.9967 268.107 8.67551C269.425 9.35431 270.547 10.3573 271.37 11.59C273.11 14.25 273.3 17.02 273.42 19.91H259.19ZM263.79 11.82C260.07 11.82 259.42 15.35 259.19 16.64H267.89C267.78 13.45 266.3 11.82 263.79 11.82Z" fill="url(#paint10_linear)"/>
<path d="M302.7 28.65H289.75V0.910004H301.9C307.53 0.910004 310.83 3.5 310.83 7.83C310.867 9.3986 310.298 10.9211 309.24 12.08C308.36 13.03 307.64 13.41 305.59 13.75C308.29 14.25 309.2 14.82 310.15 15.81C311.265 17.031 311.864 18.6368 311.82 20.29C311.82 24.32 308.55 28.65 302.7 28.65ZM302.4 5.24H294.88V12H301.56C303.8 12 305.7 10.86 305.7 8.46C305.719 8.02513 305.647 7.59107 305.487 7.18627C305.326 6.78147 305.083 6.41506 304.771 6.11105C304.459 5.80704 304.087 5.57229 303.679 5.42218C303.27 5.27207 302.834 5.20999 302.4 5.24V5.24ZM302.82 16.24H294.88V24.34H302.21C302.78 24.3819 303.353 24.3042 303.892 24.112C304.43 23.9199 304.923 23.6174 305.338 23.224C305.753 22.8306 306.082 22.3548 306.302 21.8272C306.523 21.2996 306.631 20.7318 306.62 20.16C306.652 19.6461 306.577 19.1312 306.399 18.648C306.221 18.1648 305.945 17.7238 305.588 17.3532C305.23 16.9826 304.8 16.6905 304.323 16.4954C303.847 16.3003 303.335 16.2065 302.82 16.22V16.24Z" fill="url(#paint11_linear)"/>
<path d="M327.48 28.65V27.05L327.71 24.92C327.14 26.22 325.92 29.14 321.32 29.14C316.72 29.14 314.64 26.06 314.64 21.35V8.21001H319.64V21.35C319.586 21.8333 319.637 22.3227 319.791 22.7842C319.944 23.2457 320.196 23.6683 320.529 24.023C320.862 24.3777 321.268 24.6558 321.718 24.8383C322.169 25.0208 322.654 25.1033 323.14 25.08C325.8 25.08 327.47 22.83 327.47 20.08V8.21001H332.47V28.65H327.48Z" fill="url(#paint12_linear)"/>
<path d="M342.26 12.23V23.52C342.26 24.43 342.64 24.85 343.52 24.85H345.68V28.65H342.6C338.6 28.65 337.25 27.05 337.25 23.82V12.23H334.43V8.23H337.25V2.47H342.25V8.21H345.78V12.21L342.26 12.23Z" fill="url(#paint13_linear)"/>
<path d="M371.94 29.56C367.19 29.56 360.43 28.27 360.01 20.33H365.14C365.36 24.77 369.43 25.27 371.48 25.27C372.77 25.27 378.28 25.11 378.28 21.2C378.28 19.2 377.07 18.43 374.56 17.86L367.87 16.38C364.3 15.58 360.43 13.56 360.43 8.28C360.43 2.28 366.16 0 371.6 0C373.91 0 377.41 0.42 379.95 2.74C381.55 4.18 382.16 5.51 382.69 8.74H377.56C377.37 4.56 372.93 4.33 371.56 4.33C370.65 4.33 365.48 4.41 365.48 8.02C365.48 9.61 366.43 10.87 369.39 11.51L376.61 13.11C378.74 13.56 383.61 15.2 383.61 20.63C383.53 25.72 379.27 29.56 371.94 29.56Z" fill="url(#paint14_linear)"/>
<path d="M392.91 12.23V23.52C392.91 24.43 393.29 24.85 394.17 24.85H396.33V28.65H393.26C389.26 28.65 387.9 27.05 387.9 23.82V12.23H385.09V8.23H387.9V2.47H392.9V8.21H396.44V12.21L392.91 12.23Z" fill="url(#paint15_linear)"/>
<path d="M412.1 28.65C411.613 27.7295 411.405 26.6871 411.5 25.65C410.93 26.76 409.67 29.11 404.88 29.11C399.26 29.11 397.74 25.69 397.74 23.11C397.74 18.4 401.96 16.99 406.52 16.35C408.72 16.04 411.19 15.62 411.19 13.72C411.19 12.09 409.44 11.6 407.89 11.6C406.48 11.531 405.094 11.987 404 12.88C403.48 13.4151 403.193 14.1339 403.2 14.88H398.68C399.06 8.54 404.68 7.7 407.46 7.7C412.17 7.7 416.27 9.75 416.27 15.04V26.29C416.24 26.7483 416.33 27.2066 416.529 27.6201C416.729 28.0337 417.033 28.3885 417.41 28.65H412.1ZM407.58 19.53C405.68 19.83 402.87 20.53 402.87 22.99C402.87 24.43 404.28 25.57 406.1 25.57C408.1 25.57 411.19 24.28 411.19 21.43V19.11L411.46 17.78C410.58 18.81 409.75 19.15 407.58 19.53V19.53Z" fill="url(#paint16_linear)"/>
<path d="M430.72 28.31C429.05 32.52 426.72 33.74 423.24 33.74C422.468 33.7666 421.697 33.6617 420.96 33.43V29.56C421.495 29.6771 422.041 29.7407 422.59 29.75C423.217 29.7875 423.842 29.6421 424.389 29.3315C424.936 29.0209 425.381 28.5584 425.67 28L418.26 8.21001H423.5L427.72 20.48L428.44 23.14L429.09 20.36L433.31 8.21001H438.63L430.72 28.31Z" fill="url(#paint17_linear)"/>
<path d="M480.16 28.65H475L471.19 10L470.66 6.16L470.13 10L466.33 28.62H461.16L452.65 0.910004H458.27L463.18 19.6L463.78 22.99L464.16 19.53L467.92 0.910004H473.4L477.16 19.53L477.54 22.99L478.11 19.6L483.05 0.910004H488.67L480.16 28.65Z" fill="url(#paint18_linear)"/>
<path d="M501.52 29.14C493.61 29.14 490.92 23.59 490.92 18.58C490.92 11.78 495.82 7.71001 501.63 7.71001C508.43 7.71001 512.31 12.58 512.31 18.5C512.31 23.75 509.12 29.14 501.52 29.14ZM501.63 11.7C498.82 11.7 496.05 13.91 496.05 18.39C496.05 22.26 498.17 25.15 501.78 25.15C506.49 25.15 507.22 20.97 507.22 18.43C507.22 13.75 504.44 11.7 501.63 11.7Z" fill="url(#paint19_linear)"/>
<path d="M525.68 12.73C522.15 12.73 520.21 15.16 520.21 17.67V28.67H515.21V8.21H520.21V9.69L519.83 12.69C521.89 9 523.25 7.83 527.43 7.69V12.69L525.68 12.73Z" fill="url(#paint20_linear)"/>
<path d="M530.09 28.65V0.910004H535.09V28.65H530.09Z" fill="url(#paint21_linear)"/>
<path d="M551.94 28.65V27.65L552.17 25.98C551.752 26.9846 551.026 27.8312 550.098 28.3988C549.169 28.9663 548.085 29.2258 547 29.14C541.76 29.14 538.45 25.14 538.45 18.66C538.45 11.93 541.91 7.71 546.7 7.71C547.821 7.66588 548.93 7.94749 549.894 8.52075C550.857 9.09401 551.634 9.93434 552.13 10.94L551.9 8.81V0.910004H556.9V28.65H551.94ZM547.8 12.12C543.66 12.12 543.51 17.29 543.51 18.46C543.51 21.85 545.03 24.54 547.72 24.54C549.72 24.54 551.94 22.91 551.94 18.54C551.94 16.75 551.68 12.12 547.8 12.12Z" fill="url(#paint22_linear)"/>
<defs>
<linearGradient id="paint0_linear" x1="11.47" y1="0.910004" x2="11.47" y2="28.65" gradientUnits="userSpaceOnUse">
<stop stop-color="#A025D6"/>
<stop offset="1" stop-color="#00D4FF"/>
</linearGradient>
<linearGradient id="paint1_linear" x1="37.8249" y1="7.71001" x2="37.8249" y2="29.14" gradientUnits="userSpaceOnUse">
<stop stop-color="#A025D6"/>
<stop offset="1" stop-color="#00D4FF"/>
</linearGradient>
<linearGradient id="paint2_linear" x1="55.7901" y1="2.47" x2="55.7901" y2="28.65" gradientUnits="userSpaceOnUse">
<stop stop-color="#A025D6"/>
<stop offset="1" stop-color="#00D4FF"/>
</linearGradient>
<linearGradient id="paint3_linear" x1="87.4699" y1="0" x2="87.4699" y2="29.56" gradientUnits="userSpaceOnUse">
<stop stop-color="#A025D6"/>
<stop offset="1" stop-color="#00D4FF"/>
</linearGradient>
<linearGradient id="paint4_linear" x1="106.425" y1="2.47" x2="106.425" y2="28.65" gradientUnits="userSpaceOnUse">
<stop stop-color="#A025D6"/>
<stop offset="1" stop-color="#00D4FF"/>
</linearGradient>
<linearGradient id="paint5_linear" x1="123.25" y1="7.67" x2="123.25" y2="29.11" gradientUnits="userSpaceOnUse">
<stop stop-color="#A025D6"/>
<stop offset="1" stop-color="#00D4FF"/>
</linearGradient>
<linearGradient id="paint6_linear" x1="144.16" y1="8.21001" x2="144.16" y2="33.744" gradientUnits="userSpaceOnUse">
<stop stop-color="#A025D6"/>
<stop offset="1" stop-color="#00D4FF"/>
</linearGradient>
<linearGradient id="paint7_linear" x1="181.765" y1="0.910004" x2="181.765" y2="28.65" gradientUnits="userSpaceOnUse">
<stop stop-color="#A025D6"/>
<stop offset="1" stop-color="#00D4FF"/>
</linearGradient>
<linearGradient id="paint8_linear" x1="208.145" y1="7.71001" x2="208.145" y2="29.14" gradientUnits="userSpaceOnUse">
<stop stop-color="#A025D6"/>
<stop offset="1" stop-color="#00D4FF"/>
</linearGradient>
<linearGradient id="paint9_linear" x1="236.685" y1="7.70428" x2="236.685" y2="28.65" gradientUnits="userSpaceOnUse">
<stop stop-color="#A025D6"/>
<stop offset="1" stop-color="#00D4FF"/>
</linearGradient>
<linearGradient id="paint10_linear" x1="263.845" y1="7.70587" x2="263.845" y2="29.14" gradientUnits="userSpaceOnUse">
<stop stop-color="#A025D6"/>
<stop offset="1" stop-color="#00D4FF"/>
</linearGradient>
<linearGradient id="paint11_linear" x1="300.786" y1="0.910004" x2="300.786" y2="28.65" gradientUnits="userSpaceOnUse">
<stop stop-color="#A025D6"/>
<stop offset="1" stop-color="#00D4FF"/>
</linearGradient>
<linearGradient id="paint12_linear" x1="323.555" y1="8.21001" x2="323.555" y2="29.14" gradientUnits="userSpaceOnUse">
<stop stop-color="#A025D6"/>
<stop offset="1" stop-color="#00D4FF"/>
</linearGradient>
<linearGradient id="paint13_linear" x1="340.105" y1="2.47" x2="340.105" y2="28.65" gradientUnits="userSpaceOnUse">
<stop stop-color="#A025D6"/>
<stop offset="1" stop-color="#00D4FF"/>
</linearGradient>
<linearGradient id="paint14_linear" x1="371.81" y1="0" x2="371.81" y2="29.56" gradientUnits="userSpaceOnUse">
<stop stop-color="#A025D6"/>
<stop offset="1" stop-color="#00D4FF"/>
</linearGradient>
<linearGradient id="paint15_linear" x1="390.765" y1="2.47" x2="390.765" y2="28.65" gradientUnits="userSpaceOnUse">
<stop stop-color="#A025D6"/>
<stop offset="1" stop-color="#00D4FF"/>
</linearGradient>
<linearGradient id="paint16_linear" x1="407.575" y1="7.7" x2="407.575" y2="29.11" gradientUnits="userSpaceOnUse">
<stop stop-color="#A025D6"/>
<stop offset="1" stop-color="#00D4FF"/>
</linearGradient>
<linearGradient id="paint17_linear" x1="428.445" y1="8.21001" x2="428.445" y2="33.744" gradientUnits="userSpaceOnUse">
<stop stop-color="#A025D6"/>
<stop offset="1" stop-color="#00D4FF"/>
</linearGradient>
<linearGradient id="paint18_linear" x1="470.66" y1="0.910004" x2="470.66" y2="28.65" gradientUnits="userSpaceOnUse">
<stop stop-color="#A025D6"/>
<stop offset="1" stop-color="#00D4FF"/>
</linearGradient>
<linearGradient id="paint19_linear" x1="501.615" y1="7.71001" x2="501.615" y2="29.14" gradientUnits="userSpaceOnUse">
<stop stop-color="#A025D6"/>
<stop offset="1" stop-color="#00D4FF"/>
</linearGradient>
<linearGradient id="paint20_linear" x1="521.32" y1="7.69" x2="521.32" y2="28.67" gradientUnits="userSpaceOnUse">
<stop stop-color="#A025D6"/>
<stop offset="1" stop-color="#00D4FF"/>
</linearGradient>
<linearGradient id="paint21_linear" x1="532.59" y1="0.910004" x2="532.59" y2="28.65" gradientUnits="userSpaceOnUse">
<stop stop-color="#A025D6"/>
<stop offset="1" stop-color="#00D4FF"/>
</linearGradient>
<linearGradient id="paint22_linear" x1="547.675" y1="0.910004" x2="547.675" y2="29.1561" gradientUnits="userSpaceOnUse">
<stop stop-color="#A025D6"/>
<stop offset="1" stop-color="#00D4FF"/>
</linearGradient>
</defs>
</svg>
