<svg xmlns="http://www.w3.org/2000/svg" viewBox="0 0 1431.15 209.12"><defs><style>.cls-1{fill:#fff;}</style></defs><g id="レイヤー_2" data-name="レイヤー 2"><g id="レイヤー_1-2" data-name="レイヤー 1"><polygon class="cls-1" points="940.71 92.65 863.28 92.65 852.81 124.04 930.24 124.04 940.71 92.65"/><polygon class="cls-1" points="114.59 3.9 68.55 3.9 42.9 79.24 0 205.85 46.04 205.85 86.1 86.91 86.05 86.9 114.59 3.9"/><polygon class="cls-1" points="386.65 3.9 357.89 90.04 343.42 133.02 318.64 205.85 364.68 205.85 386.87 140.72 406.83 81.44 432.69 3.9 386.65 3.9"/><path class="cls-1" d="M584.91,50.13h0L584.42,3.9H529.87L485.29,67.64h0l-56.7,80.48L387.7,205.66h49.18l29.3-45,33.7.1,38,.09-.25,6.59-.26,38.22h48.13l.11-29.71Zm-96.25,75.15,42.63-65.7h0l10.21-16.11-.11,14.31h0l-1.48,67.5Z"/><polygon class="cls-1" points="1114.51 41.57 1126.75 3.9 1055.35 3.9 1035.09 3.9 1009.3 3.9 977.82 97.39 963.8 139.68 941.75 205.85 987.79 205.85 1012.76 131.01 1013.76 127.37 1032.53 127.37 1034.08 127.37 1080.5 127.37 1083.14 118.55 1083.81 115.76 1092.29 89.7 1026.45 89.7 1042.66 41.57 1114.51 41.57"/><path class="cls-1" d="M835.42,72.43c0,.23,0-.23,0,0Z"/><path class="cls-1" d="M818.76,20.64a57,57,0,0,0-15.3-9l-.34.06C791.45,6.87,778,4.94,766,4.94c-17.78,0-84.75-1-84.75-1L668.27,43.73,621.68,182.06l-.18,0-8,23.82s76.41-.72,86.85,0h6.2a87.38,87.38,0,0,0,22.26-4.76l-.2,0c16-5.43,33.84-15.22,50.13-28.59l.63-.11c14.57-12,27.85-26.82,37.33-43.94a173.25,173.25,0,0,0,18.75-56C838.56,52.55,832.36,32.15,818.76,20.64Zm-44,94.17c-15.69,35.58-50.22,53.37-69.06,53.37H672.27l39.6-116.89,3.3-9.72h31.39c10.46,0,25.11,4.18,33.48,17.79a28.06,28.06,0,0,1,2.06,4.1C787.5,77.12,783.31,96.87,774.81,114.81Z"/><polygon class="cls-1" points="1264.16 41.57 1276.41 3.9 1205 3.9 1184.74 3.9 1158.96 3.9 1122.79 111.43 1091.03 205.85 1121.37 205.85 1137.07 205.85 1213.04 205.85 1225.28 167.13 1150.11 167.13 1164.91 123.19 1231.87 123.19 1242.12 90.64 1244.03 84.47 1177.87 84.47 1192.31 41.57 1264.16 41.57"/><path class="cls-1" d="M1394,0l-14,.1c-52.07,1.48-74.91,21.66-89,42.81a63.52,63.52,0,0,0-10.11,41c.89,7.75,1,11,7.28,18.36,3.14,4.18,16.74,14.65,29.3,19.88,6.28,4.18,25.11,7.32,26.16,25.11,0,7.33-4.19,18.84-31.39,25.11-40.81,3.14-58.6-19.88-58.6-19.88l-15.7,45c7.33,7.32,36.63,12.55,54.42,11.51,27.2-1.05,54.39-7.35,69.06-18.84,24.06-18.83,34.53-39.76,34.53-61.73S1375,92.84,1364.49,87.61c-5.72-2.86-18-7-25.44-13.85-6-5.69-9.2-13.25-3.13-23.53,13.61-19.88,48.14-16.74,62.79-11.51a81.81,81.81,0,0,1,17.79,11.51l14.65-42.9C1421.54,1.42,1404.13.2,1394,0Z"/><polygon class="cls-1" points="297.19 3.9 262.61 106.6 258.82 117.9 251.41 139.8 243.79 115.23 241.94 109.34 209.07 3.9 203.01 3.9 163.17 3.9 158.02 3.9 127.56 94.32 127.56 94.32 90 205.85 135 205.85 169.13 101.77 169.13 101.77 182.01 62.49 195.82 106.51 195.82 106.51 227 205.85 273.12 205.85 300.3 125.25 309.34 98.39 341.13 3.9 297.19 3.9"/></g></g></svg>